<?xml version="1.0" encoding="utf-8"?>
<!-- Generator: Adobe Illustrator 27.9.0, SVG Export Plug-In . SVG Version: 6.00 Build 0)  -->
<svg version="1.1" id="Capa_1" xmlns="http://www.w3.org/2000/svg" xmlns:xlink="http://www.w3.org/1999/xlink" x="0px" y="0px"
	 viewBox="0 0 1287.8 670.8" style="enable-background:new 0 0 1287.8 670.8;" xml:space="preserve">
<style type="text/css">
	.st0{fill:url(#SVGID_1_);}
</style>
<g>
	<linearGradient id="SVGID_1_" gradientUnits="userSpaceOnUse" x1="643.8971" y1="670.8172" x2="643.8971" y2="0">
		<stop  offset="0" style="stop-color:#2D3047"/>
		<stop  offset="0.1392" style="stop-color:#322F46"/>
		<stop  offset="0.3068" style="stop-color:#412C44"/>
		<stop  offset="0.4888" style="stop-color:#592740"/>
		<stop  offset="0.6813" style="stop-color:#7B203B"/>
		<stop  offset="0.8798" style="stop-color:#A61735"/>
		<stop  offset="1" style="stop-color:#C41130"/>
	</linearGradient>
	<path class="st0" d="M118.5,76.1l-37,77.7l-21.6-48.5L37.4,154L0,76.1h13.9l23.3,47.2l22.6-49.8L82,122.9l22.4-46.8H118.5z
		 M178.4,76.1h12.8v75.4h-12.8v-13H178c-7.3,10-16.2,15-26.7,15.1c-9.7,0.1-18.9-4.1-25.1-11.5c-6.9-7.8-10.5-17.8-10.2-28.2
		c-0.3-10.4,3.3-20.6,10.2-28.4c6.3-7.4,15.5-11.6,25.2-11.5c11.3,0,20.2,5.2,26.7,15.6h0.4L178.4,76.1z M179.7,113
		c0.3-6.9-2.3-13.6-7.1-18.5c-5-4.8-11.7-7.3-18.6-7.1c-6.7-0.3-13.2,2.4-17.8,7.2c-4.7,5.4-7,12.4-6.7,19.5
		c-0.2,6.9,2.2,13.6,6.8,18.7c4.2,4.9,10.3,7.7,16.7,7.6c8.5,0,15.1-2.4,19.7-7.2C177.4,128.5,179.7,121.8,179.7,113 M200.7,88.9
		h24.5v62.6h12.8V88.9h32.3v62.6h12.8V88.9h28.1V76.1H200.7L200.7,88.9z M372.4,126.7l10.2,6.8c-2.7,4.5-6.2,8.5-10.3,11.8
		c-6.8,5.6-15.4,8.5-24.3,8.3c-9.8,0.4-19.2-3.7-25.7-11c-6.5-7.3-9.7-17.1-9.7-29.2c0-11.9,3.1-21.5,9.3-28.7
		c6.2-7.2,15.3-11.2,24.7-10.8c15.4,0,25.9,6.6,31.4,19.7c2.6,7.1,3.9,14.6,4,22.2h-56.6c0.4,8,2.5,14.2,6.4,18.6
		c4.1,4.5,10.1,6.9,16.2,6.6c4.5,0.1,9-1.1,13-3.3C365.4,134.8,369.3,131.1,372.4,126.7 M325.9,105.1h42.5
		c-2.8-12.4-9.5-18.6-20.3-18.6C335.6,86.5,328.2,92.7,325.9,105.1 M538.5,76.1h12.8v75.4h-12.8v-13h-0.4c-7.3,10-16.2,15-26.7,15.1
		c-9.7,0.1-18.9-4.1-25.1-11.5c-6.9-7.8-10.5-17.8-10.2-28.2c-0.3-10.4,3.3-20.6,10.2-28.4c6.3-7.4,15.5-11.6,25.2-11.5
		c11.3,0,20.2,5.2,26.7,15.6h0.4L538.5,76.1z M539.8,113c0.3-6.9-2.3-13.6-7.1-18.5c-5-4.8-11.7-7.3-18.6-7.1
		c-6.7-0.3-13.2,2.4-17.8,7.2c-4.6,5.4-7,12.4-6.7,19.5c-0.2,6.9,2.2,13.6,6.8,18.7c4.2,4.9,10.3,7.7,16.7,7.6
		c8.5,0,15.1-2.4,19.7-7.2C537.5,128.5,539.8,121.8,539.8,113 M551.3,0v8.2c0,37.4-21.4,58.9-58.9,58.9H465v23.4h0v58.9
		c0,13-3,22.7-9,29.1c-6,6.3-11.6,9.5-24,9.5c-18.6,0-33.8-8.3-38.5-25h12c2,3.9,4.9,7.3,8.5,9.8c3.8,2,8.1,2.9,12.4,2.6
		c9.7,0,16.4-1.8,20.1-5.5c3.8-3.7,5.6-10.2,5.6-19.7v-11.1c-3.7,4.5-8.2,8.4-13.3,11.4c-4.3,2.3-9.1,3.4-14,3.3
		c-9.7-0.1-18.8-4.4-25-11.9c-7-7.6-10.9-17.5-10.7-27.8c-0.4-10.4,3.3-20.6,10.2-28.4c6.5-7.4,15.9-11.5,25.7-11.3
		c10.9,0,19.8,5.2,26.7,15.6h0.3V63.9h0.1v-3.3c0-36.8,23.8-60.6,60.6-60.6H551.3z M453.3,113.9c0.4-7.2-2.2-14.3-7.1-19.7
		c-5.1-5-12-7.6-19.1-7.2h-0.6c-6.7-0.1-13.1,2.7-17.6,7.7c-4.6,5.4-7,12.3-6.7,19.4c-0.3,7,2.1,13.8,6.7,19.1
		c4.5,4.9,10.9,7.5,17.6,7.2c7.2,0.4,14.2-2.2,19.5-7.2C451.1,128.1,453.7,121.1,453.3,113.9 M538.4,12.8h-25.6
		c-27.7,0-45.1,15.3-47.5,41.4h27.2C527.7,54.2,537.2,32.7,538.4,12.8 M11.8,211.9h1275.9v4.7H11.8V211.9z M97.6,284.7
		c0.5-2.3,2.6-3.9,5-3.8H151c2.4-0.1,4.4,1.5,5,3.8l88.2,253.2c0.8,2.3,0,3.8-2.7,3.8h-49.9c-2.4,0.2-4.6-1.4-5-3.8l-15-45.7H80.4
		l-14.6,45.7c-0.4,2.4-2.6,4.1-5,3.8H10.6c-2.7,0-3.5-1.5-2.7-3.8L97.6,284.7z M156.4,444.3L126.8,353h-1.1l-29.5,91.3H156.4z
		 M418.8,541.8c-2.6,0.4-5.1-1.3-5.8-3.8l-44.9-95.5h-34.9c-1.1-0.2-2.1,0.6-2.3,1.7c0,0.2,0,0.4,0,0.6v93.2c0.1,2-1.4,3.7-3.4,3.8
		c-0.1,0-0.3,0-0.4,0h-48.7c-2,0.1-3.7-1.4-3.8-3.4c0-0.1,0-0.3,0-0.4V284.7c-0.1-2,1.4-3.7,3.4-3.8c0.1,0,0.3,0,0.4,0h104
		c53.3,0,88.6,33.4,88.6,81c0,33.4-17.7,59.9-46.4,72.5l51.4,102.8c0.9,1.3,0.6,3.2-0.8,4.1c-0.6,0.4-1.2,0.6-1.9,0.5L418.8,541.8z
		 M414.5,361.8c0-19.6-13.8-32.2-35.3-32.2h-46c-1.1-0.2-2.1,0.6-2.3,1.7c0,0.2,0,0.4,0,0.6v60.2c-0.2,1.1,0.6,2.1,1.7,2.3
		c0.2,0,0.4,0,0.6,0h46C400.7,394.4,414.5,381.8,414.5,361.8 M727.6,313.8l-48.5,51.2c0,0-10.1-35.2-51.7-33.6
		c-41.6,1.6-58.7,31.5-62.4,52.3s-1.6,61.8,12.8,81.6L533,512.1c0,0-41.6-34.7-38.9-108.8c2.7-74.1,50.6-116.2,102.9-129.6
		C649.2,260.4,707.9,288.7,727.6,313.8 M601.3,394.5c0-0.3,0.2-0.6,0.6-0.7c0,0,0,0,0.1,0h17.6c9.8,0,14.4,4.9,14.4,12
		c0.2,4-1.8,7.7-5.2,9.6v0.1c3.9,1.9,6.3,5.9,6,10.2c0,8.9-5.9,13.2-15.7,13.2H602c-0.3,0-0.6-0.2-0.7-0.6c0,0,0,0,0-0.1V394.5z
		 M618.4,412.3c3.7,0,5.9-2,5.9-5.3c0-3.3-2.2-5.2-5.9-5.2h-6.9c-0.2,0-0.4,0.1-0.4,0.3c0,0,0,0.1,0,0.1v9.8c0,0.2,0.1,0.4,0.3,0.4
		c0,0,0.1,0,0.1,0L618.4,412.3z M611.5,431.1h7.4c3.1,0.2,5.8-2.2,6-5.3c0.2-3.1-2.2-5.8-5.3-6c-0.2,0-0.4,0-0.7,0h-7.4
		c-0.2,0-0.4,0.1-0.4,0.3c0,0,0,0.1,0,0.1v10.5c0,0.2,0.1,0.4,0.3,0.4C611.4,431.1,611.5,431.1,611.5,431.1 M640.7,416.4
		c0-7,0.3-9.3,1.3-12.2c2.4-7.4,8.2-11.1,16.1-11.1c6.9-0.4,13.2,3.6,15.7,10c0.2,0.2,0.1,0.5-0.1,0.7c-0.1,0-0.1,0.1-0.2,0.1
		l-7.2,3.3c-0.3,0.2-0.7,0.1-0.9-0.2c0,0,0-0.1-0.1-0.1c-1-3.1-3.9-5.2-7.2-5.1c-3.2-0.2-6,1.9-6.8,5c-0.5,1.6-0.7,3.3-0.7,9.7
		s0.2,8,0.7,9.7c0.8,3.1,3.6,5.1,6.8,5c3.3,0,6.2-2,7.2-5.1c0.1-0.3,0.5-0.5,0.8-0.4c0,0,0.1,0,0.1,0.1l7.2,3.3
		c0.3,0,0.5,0.3,0.4,0.6c0,0.1,0,0.1-0.1,0.2c-2.5,6.4-8.9,10.5-15.7,10c-7.9,0-13.7-3.7-16.1-11.1
		C641,425.7,640.7,423.4,640.7,416.4 M680.1,394.5c0-0.3,0.2-0.6,0.6-0.7c0,0,0,0,0.1,0h8c0.5,0,0.9,0.2,1.1,0.7l15.9,28.4h0.3
		v-28.4c0-0.3,0.2-0.6,0.6-0.7c0,0,0,0,0.1,0h7.5c0.3,0,0.6,0.2,0.7,0.6c0,0,0,0.1,0,0.1v43.9c0,0.3-0.2,0.6-0.6,0.7
		c0,0-0.1,0-0.1,0h-7.9c-0.5,0-0.9-0.2-1.1-0.7l-16-28.4h-0.3v28.4c0,0.3-0.2,0.6-0.6,0.7c0,0-0.1,0-0.1,0h-7.5
		c-0.3,0-0.6-0.2-0.7-0.6c0,0,0-0.1,0-0.1L680.1,394.5z M8.1,595.9h39.7v9.8h-30v17.8h30v9.7h-30v24.6h30v9.7H8.1V595.9z M57.6,593
		l52.9,54.4v-51.5h9.8v74.9l-52.9-54.2v50.8h-9.8V593z M202.9,607.3l-7.2,7.1c-2.8-2.5-5.3-4.5-7.6-5.9c-5.5-3.2-11.4-4.8-17.7-4.8
		c-8.4,0-15.4,2.7-21,8.1c-5.6,5.4-8.3,12.1-8.3,20.2c0,7.2,2.6,13.5,7.9,19c5.8,5.8,13.3,8.6,22.5,8.6c7,0,12.8-1.6,17.4-4.8
		c4.6-3.2,7.8-7.8,9.5-13.9h-19.3v-9.8h30.5c0,4.1-0.2,7.2-0.5,9.3c-0.3,2.1-1,4.4-2.1,7c-1.8,4.5-4.5,8.6-8.2,12.2
		c-3.6,3.6-7.6,6.2-11.8,7.8c-4.3,1.6-9.5,2.4-15.8,2.4c-12.2,0-22.1-3.9-29.6-11.6c-3.5-3.5-6.2-7.6-8.1-12.3
		c-2-4.7-2.9-9.5-2.9-14.4c0-10.6,3.8-19.6,11.3-26.9c7.5-7.4,16.6-11,27.4-11c6.8,0,12.9,1.1,18.2,3.2c2.9,1.2,5.4,2.5,7.4,3.9
		C196.9,602.1,199.6,604.3,202.9,607.3z M221.2,595.9h9.7v71.6h-9.7V595.9z M244.8,593l52.9,54.4v-51.5h9.8v74.9l-52.9-54.2v50.8
		h-9.8V593z M316.7,595.9h10.8l17.6,28.8l17.4-28.8h10.8l-23.5,38.8v32.8H340v-32.7L316.7,595.9z M382.5,595.9h39.7v9.8h-30v17.8h30
		v9.7h-30v24.6h30v9.7h-39.7V595.9z M434,595.9h15.5c7.7,0,13.9,1.9,18.8,5.7c4.9,3.8,7.3,8.7,7.3,14.8c0,6.3-2.5,11.4-7.5,15.3
		c-2.6,2.1-6.6,3.8-12,5.2l20.8,30.6h-11.2L446,638h-2.2v29.5H434V595.9z M443.8,604.6v25c6.7-0.1,11.4-0.7,14-1.8
		c5.1-2,7.6-5.6,7.6-10.7c0-5.2-2.4-8.8-7.2-10.7C455.2,605.1,450.4,604.6,443.8,604.6z M488.8,595.9h9.7v71.6h-9.7V595.9z
		 M539.6,593.2l33.8,74.3h-10.2l-8.4-18.3h-30.4l-8.2,18.3h-10.1L539.6,593.2z M539.6,615.6L528.1,641h23L539.6,615.6z M641.7,628.7
		l15,15.9l8.1-8.9l6.9,6.2l-8.5,9.5l15.1,15.9h-12.8l-8.5-9c-4,3.6-7.1,6.1-9.4,7.5c-4.8,2.8-9.5,4.1-14.2,4.1
		c-6.6,0-12.3-2-17.1-6.1c-4.8-4.1-7.2-8.9-7.2-14.6c0-4.4,1.3-8.2,3.9-11.2c1.8-1.8,3.4-3.2,4.8-4.4c1.5-1.2,4.5-3.4,9.2-6.7
		c-0.8-1.1-1.4-1.9-1.8-2.5c-2.7-3.5-4.4-6.1-5.3-7.9c-0.8-1.8-1.3-4-1.5-6.6c0.3-4.9,2.2-8.9,5.6-12c3.4-3.1,7.7-4.6,12.8-4.6
		c4.9,0,9,1.6,12.4,4.9c3.4,3.3,5.1,7.3,5.1,12c0,3.9-1.3,7.6-4,10.9C648.4,623.5,645.6,626,641.7,628.7z M650.4,651.5l-16.8-17.8
		c-6.7,4.4-10.9,7.7-12.5,9.9c-1.4,1.8-2.1,3.7-2.1,5.6c0,3.1,1.4,5.8,4.2,8.1c2.8,2.3,6.2,3.4,10.1,3.4c2.8,0,5.4-0.7,7.9-2
		C643.6,657.3,646.7,654.9,650.4,651.5z M635.1,621.9c3.8-2.6,6.3-4.8,7.8-6.4c1.4-1.7,2.1-3.4,2.1-5.2c0-2.3-0.8-4.1-2.4-5.5
		c-1.6-1.4-3.7-2.1-6.3-2.1c-2.5,0-4.5,0.7-6.1,2c-1.6,1.3-2.4,3-2.4,5.1C627.9,612.8,630.3,616.9,635.1,621.9z M717.9,595.9h9.7
		v71.6h-9.7V595.9z M741.5,593l52.9,54.4v-51.5h9.8v74.9l-52.9-54.2v50.8h-9.8V593z M817.1,593l52.9,54.4v-51.5h9.8v74.9l-52.9-54.2
		v50.8h-9.8V593z M930.1,593.6c10.7,0,19.9,3.7,27.6,11.1c7.7,7.4,11.5,16.2,11.5,26.5c0,10.9-3.8,20.1-11.4,27.5
		c-7.6,7.4-17,11.2-28.1,11.2c-11,0-20.3-3.8-28-11.3c-7.7-7.5-11.5-16.6-11.5-27.4c0-10.4,3.9-19.3,11.7-26.6
		C909.7,597.3,919.1,593.6,930.1,593.6z M929.3,603.6c-8,0-14.8,2.7-20.4,8.2c-5.6,5.5-8.4,12.1-8.4,19.8c0,7.9,2.9,14.5,8.6,19.9
		c5.8,5.4,12.8,8.1,21.3,8.1c7.7,0,14.4-2.7,20-8.2c5.6-5.5,8.4-12.1,8.4-19.7c0-7.9-2.8-14.6-8.5-20
		C944.7,606.3,937.6,603.6,929.3,603.6z M974.8,596h10.4l22.4,50.6l22.5-50.6h10.5l-33.1,73.9L974.8,596z M1075.8,593.2l33.8,74.3
		h-10.2l-8.4-18.3h-30.4l-8.2,18.3h-10.1L1075.8,593.2z M1075.8,615.6l-11.5,25.4h23L1075.8,615.6z M1175.4,598.3v11
		c-7.8-3.8-14.9-5.6-21.3-5.6c-8.4,0-15.4,2.7-21.1,8c-5.7,5.3-8.5,11.9-8.5,19.8c0,8.1,2.9,14.7,8.7,20c5.8,5.3,13.1,7.9,21.9,7.9
		c6.3,0,13-2,20.2-6v11.2c-6.7,3.5-13.7,5.2-21.1,5.2c-11.1,0-20.6-3.7-28.5-11.2c-7.9-7.5-11.8-16.5-11.8-27.2
		c0-10.4,3.9-19.3,11.6-26.7c7.7-7.4,17-11.1,28-11.1C1160.4,593.6,1167.7,595.2,1175.4,598.3z M1185.7,595.9h9.7v71.6h-9.7V595.9z
		 M1246.7,593.6c10.7,0,19.9,3.7,27.6,11.1c7.7,7.4,11.5,16.2,11.5,26.5c0,10.9-3.8,20.1-11.4,27.5c-7.6,7.4-17,11.2-28.1,11.2
		c-11,0-20.3-3.8-28-11.3c-7.7-7.5-11.5-16.6-11.5-27.4c0-10.4,3.9-19.3,11.7-26.6C1226.3,597.3,1235.7,593.6,1246.7,593.6z
		 M1245.9,603.6c-8,0-14.8,2.7-20.4,8.2c-5.6,5.5-8.4,12.1-8.4,19.8c0,7.9,2.9,14.5,8.6,19.9c5.8,5.4,12.8,8.1,21.3,8.1
		c7.7,0,14.4-2.7,20-8.2c5.6-5.5,8.4-12.1,8.4-19.7c0-7.9-2.8-14.6-8.5-20C1261.3,606.3,1254.2,603.6,1245.9,603.6z M1240.1,588.8
		l7.5-15.6h13.2l-12.4,15.6H1240.1z"/>
</g>
</svg>
